<svg id="light" enable-background="new 0 0 24 24" height="512" viewBox="0 0 24 24" width="512"
     xmlns="http://www.w3.org/2000/svg">
    <g>
        <path d="m5.6 22c-.1 0-.3-.1-.4-.2-.2-.2-.2-.5 0-.7.4-.4.6-.8.6-1.3s-.2-1-.6-1.3c-.2-.2-.2-.5 0-.7l2-2.6c.2-.3.3-.7.1-1.1 0-.1 0-.1-.1-.1 0 0-.1 0-.2.1l-3.7 3.6c-.2.2-.5.2-.7 0s-.2-.5 0-.7l3.7-3.6c.3-.3.7-.4 1.1-.4.4.1.7.3.9.6.4.7.3 1.5-.2 2.1l-1.8 2.3c.4.5.6 1.1.6 1.7 0 .8-.3 1.5-.9 2.1-.1.2-.2.2-.4.2z"/>
    </g>
    <g>
        <path d="m8.5 24h-8c-.3 0-.5-.2-.5-.5v-4.9c0-1.7.7-3.3 1.9-4.6l1.9-1.9c.2-.2.5-.2.7 0s.2.5 0 .7l-1.9 1.9c-1 1-1.6 2.4-1.6 3.9v4.4h7v-.9c0-.2.1-.3.2-.4.8-.5 1.2-1.3 1.3-2.2 0-.3.2-.5.5-.5s.5.2.5.5c0 1.1-.6 2.2-1.5 2.9v1.1c0 .3-.2.5-.5.5z"/>
    </g>
    <g>
        <path d="m16.8 11c-.1 0-.1 0-.2 0-.4-.1-.7-.3-.9-.6-.4-.7-.3-1.5.2-2.1l1.8-2.3c-.4-.5-.6-1.1-.6-1.7 0-.8.3-1.5.9-2.1.2-.2.5-.2.7 0s.2.5 0 .7c-.4.4-.6.8-.6 1.3s.2 1 .6 1.3c.2.2.2.5 0 .7l-2 2.6c-.2.3-.3.7-.1 1.1 0 .1.1.1.2.1 0 0 .1 0 .2-.1l3.7-3.6c.2-.2.5-.2.7 0s.2.5 0 .7l-3.7 3.6c-.3.3-.6.4-.9.4z"/>
    </g>
    <g>
        <path d="m19.9 12c-.1 0-.3 0-.3-.1-.2-.2-.2-.5 0-.7l1.9-1.9c1-1 1.6-2.4 1.6-3.9v-4.4h-7v.9c0 .2-.1.3-.2.4-.8.5-1.2 1.3-1.3 2.2-.1.3-.3.5-.6.5s-.5-.2-.5-.5c0-1.1.6-2.2 1.5-2.9v-1.1c0-.3.2-.5.5-.5h8c.3 0 .5.2.5.5v4.9c0 1.7-.7 3.3-1.9 4.6l-1.9 1.9s-.2.1-.3.1z"/>
    </g>
    <g>
        <path d="m4.5 16.3c-.3 0-.5-.2-.5-.5v-11.3c0-.3.2-.5.5-.5h13.1c.3 0 .5.2.5.5s-.2.5-.5.5h-12.6v10.8c0 .3-.2.5-.5.5z"/>
    </g>
    <g>
        <path d="m19.5 20h-13c-.1 0-.2 0-.3 0-.3-.1-.4-.3-.4-.6s.3-.4.6-.4h12.6v-10.8c0-.3.2-.5.5-.5s.5.2.5.5v11.3c0 .3-.2.5-.5.5z"/>
    </g>
</svg>