<svg id="light" enable-background="new 0 0 24 24" height="512" viewBox="0 0 24 24" width="512"
     xmlns="http://www.w3.org/2000/svg">
    <path d="m5.636 22.004c-.131 0-.262-.051-.36-.153-.191-.198-.186-.515.014-.707.37-.357.575-.831.575-1.333 0-.503-.205-.977-.575-1.334-.185-.178-.205-.466-.048-.667l2.047-2.632c.242-.312.28-.719.101-1.065-.04-.076-.112-.099-.152-.104-.03-.006-.12-.013-.192.057l-3.699 3.564c-.197.19-.514.188-.707-.014-.191-.198-.186-.515.014-.707l3.697-3.565c.275-.266.667-.385 1.049-.323.382.063.701.293.877.632.356.686.278 1.525-.199 2.14l-1.792 2.304c.376.494.579 1.089.579 1.715 0 .776-.313 1.506-.882 2.054-.097.091-.222.138-.347.138z"/>
    <path d="m8.5 24h-8c-.276 0-.5-.224-.5-.5v-4.88c0-1.711.661-3.327 1.863-4.551l1.879-1.919c.192-.197.512-.199.707-.008.197.193.201.51.008.707l-1.88 1.92c-1.017 1.037-1.577 2.404-1.577 3.851v4.38h7v-.88c0-.176.093-.339.243-.429.759-.454 1.24-1.297 1.257-2.2.005-.276.268-.524.509-.491.276.005.496.233.491.509-.021 1.147-.589 2.226-1.5 2.881v1.11c0 .276-.224.5-.5.5z"/>
    <path d="m18.364 22.004c-.125 0-.25-.047-.347-.14-.568-.548-.882-1.277-.882-2.054 0-.626.203-1.221.579-1.715l-1.792-2.305c-.478-.613-.556-1.453-.198-2.14.175-.338.494-.567.876-.631.38-.063.773.058 1.049.323l3.697 3.565c.199.192.205.509.014.707-.192.201-.509.204-.707.014l-3.697-3.565c-.072-.069-.16-.063-.192-.057-.04.006-.112.028-.151.104-.181.348-.143.755.1 1.065l2.047 2.633c.157.201.137.489-.048.667-.37.357-.575.831-.575 1.334 0 .502.205.976.575 1.333.199.192.205.509.014.707-.1.104-.231.155-.362.155z"/>
    <path d="m23.5 24h-8c-.276 0-.5-.224-.5-.5v-1.11c-.911-.655-1.479-1.733-1.5-2.881-.005-.275.215-.504.491-.509.267-.041.504.215.509.491.017.903.498 1.746 1.257 2.2.15.09.243.253.243.429v.88h7v-4.38c0-1.447-.56-2.814-1.576-3.85l-1.881-1.921c-.193-.197-.189-.514.008-.707.197-.191.516-.189.707.008l1.88 1.92c1.201 1.223 1.862 2.839 1.862 4.55v4.88c0 .276-.224.5-.5.5z"/>
    <path d="m17.65 20h-11.15c-.096 0-.177-.004-.257-.02-.271-.053-.447-.315-.394-.587.052-.271.315-.446.582-.395l11.219.002c.276 0 .5.224.5.5s-.223.5-.5.5z"/>
    <path d="m19.5 16.32c-.276 0-.5-.224-.5-.5v-14.32c0-.275-.225-.5-.5-.5h-13c-.275 0-.5.225-.5.5v14.32c0 .276-.224.5-.5.5s-.5-.223-.5-.5v-14.32c0-.827.673-1.5 1.5-1.5h13c.827 0 1.5.673 1.5 1.5v14.32c0 .277-.224.5-.5.5z"/>
    <path d="m12 13c-2.757 0-5-2.243-5-5s2.243-5 5-5 5 2.243 5 5-2.243 5-5 5zm0-9c-2.206 0-4 1.794-4 4s1.794 4 4 4 4-1.794 4-4-1.794-4-4-4z"/>
    <path d="m8.818 11.682c-.128 0-.256-.049-.354-.146-.195-.195-.195-.512 0-.707l3.036-3.036v-4.293c0-.276.224-.5.5-.5s.5.224.5.5v4.5c0 .133-.053.26-.146.354l-3.182 3.182c-.098.097-.226.146-.354.146z"/>
</svg>