<?xml version="1.0"?>
<svg xmlns="http://www.w3.org/2000/svg" viewBox="0 0 64 64" width="512" height="512">
    <g id="Labtop-Graduation-Online_study_icon-study-Education"
       data-name="Labtop-Graduation-Online study icon-study-Education">
        <path d="M61.41,45.09,58.96,44H61a1,1,0,0,0,.89-1.45L55.45,29.66a3.093,3.093,0,0,0-.91-1.08A2.951,2.951,0,0,0,55,27V5a3.009,3.009,0,0,0-3-3H12A3.009,3.009,0,0,0,9,5V27a2.951,2.951,0,0,0,.46,1.58,3.093,3.093,0,0,0-.91,1.08L2.11,42.55A1,1,0,0,0,3,44H27.04l-2.45,1.09A.987.987,0,0,0,24,46v4.76l-1.56,3.12A2.852,2.852,0,0,0,24.99,58h.02a2.852,2.852,0,0,0,2.55-4.12L26,50.76V47.54l4,1.78V58c0,3.16,8.17,4,13,4s13-.84,13-4V49.32l5.41-2.41a1,1,0,0,0,0-1.82ZM25.73,55.6a.853.853,0,0,1-.72.4h-.02a.851.851,0,0,1-.76-1.23L25,53.24l.77,1.53A.86.86,0,0,1,25.73,55.6ZM11,5a1,1,0,0,1,1-1H52a1,1,0,0,1,1,1V27a1,1,0,0,1-1,1H41V23a5,5,0,0,0-5-5,1,1,0,0,0-.45.11L32,19.88l-3.55-1.77A1,1,0,0,0,28,18a5,5,0,0,0-5,5v5H12a1,1,0,0,1-1-1ZM39,23v5H25V23a3,3,0,0,1,2.78-2.99l3.77,1.88a.956.956,0,0,0,.9,0l3.77-1.88A3,3,0,0,1,39,23ZM4.62,42l5.72-11.45a.992.992,0,0,1,.9-.55H52.76a.992.992,0,0,1,.9.55L59.38,42H54.46L43.41,37.09a.979.979,0,0,0-.82,0L40.54,38H26a1,1,0,0,0,0,2H36.04l-4.5,2ZM43,60c-6.68,0-10.66-1.33-11-2V50.21l10.59,4.7a.979.979,0,0,0,.82,0L54,50.2l.01,7.73C53.66,58.67,49.68,60,43,60Zm0-7.09L29.71,47H43a1,1,0,0,0,0-2H29.71l11.43-5.08L43,39.09,58.54,46Z"/>
        <path d="M31,16h2a4,4,0,0,0,4-4V10a4,4,0,0,0-4-4H31a4,4,0,0,0-4,4v2A4,4,0,0,0,31,16Zm-2-6a2,2,0,0,1,2-2h2a2,2,0,0,1,2,2v2a2,2,0,0,1-2,2H31a2,2,0,0,1-2-2Z"/>
    </g>
</svg>
