<svg id="Layer_1_1_" enable-background="new 0 0 64 64" height="512" viewBox="0 0 64 64" width="512"
     xmlns="http://www.w3.org/2000/svg">
    <path d="m24 6h16v2h-16z"/>
    <path d="m24 10h16v2h-16z"/>
    <path d="m24 14h16v2h-16z"/>
    <path d="m27 27h14v2h-14z"/>
    <path d="m25 31h14v2h-14z"/>
    <path d="m23 35h14v2h-14z"/>
    <path d="m24 48h16v2h-16z"/>
    <path d="m24 52h16v2h-16z"/>
    <path d="m24 56h16v2h-16z"/>
    <path d="m13.5 54h6.5v7c0 .55225.44727 1 1 1h22c.55273 0 1-.44775 1-1v-7h2.06946c.49463 3.93994 3.85876 7 7.93054 7 4.41113 0 8-3.58887 8-8s-3.58887-8-8-8c-4.07178 0-7.43591 3.06006-7.93054 7h-2.06946v-7c0-.55225-.44727-1-1-1h-22c-.55273 0-1 .44775-1 1v7h-6.5c-2.53125 0-4.91504-.98975-6.71289-2.78711-1.79688-1.79687-2.78711-4.18115-2.78711-6.71289 0-5.23828 4.26172-9.5 9.5-9.5h6.05682l-2.49335 6.64893c-.11523.30713-.07227.65088.11426.9209.1875.26953.49415.43017.82227.43017h22c.41699 0 .79004-.25879.93652-.64893l2.75666-7.35107h6.80682c3.06543 0 5.95117-1.19775 8.12695-3.37305 2.17481-2.17431 3.37305-5.06054 3.37305-8.12695 0-6.34131-5.15918-11.5-11.5-11.5h-6.5v-7c0-.55225-.44727-1-1-1h-22c-.55273 0-1 .44775-1 1v16c0 .55225.44727 1 1 1h22c.55273 0 1-.44775 1-1v-7h6.5c5.23828 0 9.5 4.26172 9.5 9.5 0 2.53174-.99023 4.91602-2.78711 6.71289-1.79785 1.79736-4.18164 2.78711-6.71289 2.78711h-6.05682l2.49335-6.64893c.11523-.30713.07227-.65088-.11426-.9209-.1875-.26953-.49415-.43017-.82227-.43017h-22c-.41699 0-.79004.25879-.93652.64893l-2.75666 7.35107h-6.80682c-6.34082 0-11.5 5.15869-11.5 11.5 0 3.06641 1.19824 5.95264 3.37305 8.12695 2.17578 2.1753 5.06152 3.37305 8.12695 3.37305zm40.5-7c3.30859 0 6 2.69141 6 6s-2.69141 6-6 6-6-2.69141-6-6 2.69141-6 6-6zm-32-1h20v14h-20zm20-28h-20v-14h20zm-17.30664 7h19.86328l-5.25 14h-19.86328z"/>
    <path d="m53 56c.25586 0 .51172-.09766.70703-.29297l4-4-1.41406-1.41406-3.29297 3.29297-1.29297-1.29297-1.41406 1.41406 2 2c.19531.19531.45117.29297.70703.29297z"/>
</svg>