<svg height="512pt" viewBox="-63 0 511 512" width="512pt" xmlns="http://www.w3.org/2000/svg">
    <path d="m325.5 40h-75.425781c-8.257813-23.28125-30.5-40-56.574219-40s-48.316406 16.71875-56.574219 40h-76.425781c-33.085938 0-60 26.914062-60 60v352c0 33.085938 26.914062 60 60 60h265.0625c33.050781-.035156 59.9375-26.949219 59.9375-60v-352c0-33.085938-26.914062-60-60-60zm-152 40v-20c0-11.027344 8.972656-20 20-20s20 8.972656 20 20v20h40v39h-120v-39zm172 372c0 11.015625-8.964844 19.988281-19.957031 20h-265.042969c-11.027344 0-20-8.972656-20-20v-352c0-11.027344 8.972656-20 20-20h33v79h200v-79h32c11.027344 0 20 8.972656 20 20zm-75.792969-221.960938 29.582031 26.921876-128.089843 140.75-84.605469-81.835938 27.8125-28.75 54.964844 53.164062zm0 0"/>
</svg>